<?xml version="1.0" standalone="no"?>
<!DOCTYPE svg PUBLIC "-//W3C//DTD SVG 20010904//EN"
 "http://www.w3.org/TR/2001/REC-SVG-20010904/DTD/svg10.dtd">
<svg version="1.0" xmlns="http://www.w3.org/2000/svg"
 width="67.000000pt" height="300.000000pt" viewBox="0 0 67.000000 300.000000"
 preserveAspectRatio="xMidYMid meet">
<metadata>
Created by potrace 1.10, written by Peter Selinger 2001-2011
</metadata>
<g transform="translate(0.000000,300.000000) scale(0.100000,-0.100000)"
fill="#000000" stroke="none">
<path d="M400 1991 l0 -1009 -55 -27 c-42 -20 -55 -32 -55 -49 0 -28 33 -123
49 -139 15 -15 14 -38 -4 -64 -9 -12 -14 -28 -13 -34 2 -7 -4 -13 -12 -14 -55
-2 -120 -60 -172 -153 -25 -44 -34 -52 -59 -52 -34 0 -49 -24 -31 -49 7 -9 16
-26 22 -38 13 -32 50 -31 50 1 0 13 9 35 21 50 20 26 26 27 74 10 6 -2 19 14
29 37 25 51 31 54 57 28 18 -18 19 -25 10 -46 -13 -28 -7 -43 15 -43 9 0 12
-5 8 -11 -4 -7 -6 -51 -5 -100 1 -74 -1 -89 -16 -98 -10 -5 -15 -13 -11 -17 5
-4 2 -14 -4 -22 -10 -11 -8 -17 7 -28 36 -26 55 -18 55 24 0 39 22 114 47 161
7 15 13 37 13 49 0 36 51 122 72 122 5 0 4 -9 -2 -20 -6 -11 -8 -25 -5 -30 3
-5 1 -19 -5 -30 -13 -25 5 -28 19 -3 6 10 11 13 11 8 0 -6 -7 -20 -15 -32 -9
-13 -11 -24 -5 -28 17 -10 50 14 56 43 3 15 14 51 25 80 10 30 19 67 19 83 0
22 7 32 25 41 16 7 24 17 21 27 -3 9 -10 38 -17 65 -9 38 -20 54 -50 75 -42
28 -50 60 -19 68 22 6 44 63 35 93 -8 26 -41 43 -68 36 -31 -7 -48 -39 -49
-91 -1 -44 -14 -60 -38 -45 -12 7 -21 97 -10 103 10 5 0 2077 -10 2077 -7 0
-10 -352 -10 -1009z m2 -1102 c5 -51 -5 -58 -36 -22 l-25 28 22 17 c31 25 34
23 39 -23z m154 11 c0 -14 -12 -40 -28 -58 -15 -18 -28 -37 -28 -42 0 -5 18
-26 39 -47 59 -56 79 -126 45 -154 -13 -11 -17 -10 -25 4 -6 9 -14 17 -19 17
-18 0 -48 -43 -55 -78 -4 -20 -18 -47 -31 -61 -29 -28 -50 -71 -59 -121 -4
-19 -12 -44 -18 -55 -10 -19 -10 -19 -17 0 -3 11 -6 52 -6 90 1 66 -1 72 -33
108 -19 20 -39 37 -45 37 -6 0 -24 -18 -39 -40 -22 -31 -35 -40 -58 -40 -16 0
-29 3 -29 8 0 4 16 31 35 59 39 59 88 100 125 105 19 2 31 16 48 53 22 46 23
52 9 80 -21 41 -49 117 -45 121 2 1 12 -10 22 -25 23 -34 76 -71 102 -71 24 0
53 46 50 80 -3 30 22 62 43 58 9 -2 16 -14 17 -28z m-9 -313 c-3 -8 -8 -40
-13 -73 -6 -55 -27 -94 -42 -80 -3 4 -1 10 5 14 6 4 10 26 10 49 0 46 20 103
35 103 6 0 8 -6 5 -13z m-437 -164 c0 -5 -5 -15 -10 -23 -9 -13 -11 -13 -19 0
-7 10 -6 17 2 22 15 10 27 10 27 1z m220 -3 c0 -5 -2 -10 -4 -10 -3 0 -8 5
-11 10 -3 6 -1 10 4 10 6 0 11 -4 11 -10z"/>
</g>
</svg>
